<?xml version="1.0" encoding="UTF-8"?>
<svg version="1.1" xmlns="http://www.w3.org/2000/svg" width="300" height="300">
<path d="M0 0 C99 0 198 0 300 0 C300 99 300 198 300 300 C201 300 102 300 0 300 C0 201 0 102 0 0 Z " fill="#FEFEFE" transform="translate(0,0)"/>
<path d="M0 0 C46.53 0 93.06 0 141 0 C143.31057564 12.708166 143.31057564 12.708166 143.375 17.875 C143.40335938 18.92429687 143.43171875 19.97359375 143.4609375 21.0546875 C142.88723855 24.72052658 141.54847287 26.35678837 139 29 C135.52011442 30.73994279 131.7956593 30.5976415 128 30 C125.54349865 28.57493025 124.00818403 27.05967593 122 25 C121.38125 25.825 120.7625 26.65 120.125 27.5 C117.55420249 30.08552987 115.54412923 30.4399705 111.9375 30.5625 C108.46631673 30.39178607 107.26619867 30.1901419 104.375 28.125 C103 26 103 26 103 24 C102.59910156 24.433125 102.19820313 24.86625 101.78515625 25.3125 C98.50654195 28.5242038 96.06644032 30.45960759 91.375 30.6875 C87.72798117 30.4510039 87.00449304 30.00365059 84 27.5625 C83.01 26.2940625 83.01 26.2940625 82 25 C81.67 24.67 81.34 24.34 81 24 C80.38125 24.99 79.7625 25.98 79.125 27 C77.31988096 29.18269408 76.37788153 29.91575501 73.58203125 30.5390625 C69.4303711 30.67397612 66.8805476 30.6604107 63.5 28.125 C63.005 27.42375 62.51 26.7225 62 26 C61.34 25.34 60.68 24.68 60 24 C59.54625 24.804375 59.0925 25.60875 58.625 26.4375 C57 29 57 29 55 30 C46.29511677 30.92508341 46.29511677 30.92508341 42.375 28.125 C41 26 41 26 41 24 C40.59910156 24.433125 40.19820312 24.86625 39.78515625 25.3125 C36.573098 28.45900604 34.09304145 30.46638166 29.5 30.75 C24.33529474 30.43108166 21.40062515 27.6739873 18 24 C17.731875 24.61875 17.46375 25.2375 17.1875 25.875 C16 28 16 28 13 30 C9.93524457 30.54522803 7.06475161 30.54842924 4 30 C1 27.5625 1 27.5625 -1 25 C-1.33 24.67 -1.66 24.34 -2 24 C-2.76033958 15.88381705 -1.14920716 8.04445009 0 0 Z " fill="#3687D9" transform="translate(78,91)"/>
<path d="M0 0 C10.26004457 -0.09026432 20.50275171 -0.15057578 30.75 0.4375 C31.82979126 0.49635376 31.82979126 0.49635376 32.93139648 0.55639648 C37.87212303 0.87212303 37.87212303 0.87212303 39 2 C39.08669432 3.4887186 39.10703494 4.981445 39.09765625 6.47265625 C39.09443359 7.37177734 39.09121094 8.27089844 39.08789062 9.19726562 C39.07532227 10.61555664 39.07532227 10.61555664 39.0625 12.0625 C39.05798828 13.01189453 39.05347656 13.96128906 39.04882812 14.93945312 C39.0370011 17.29303065 39.02052025 19.64648477 39 22 C39.66 22 40.32 22 41 22 C41 24 41 24 39.78515625 25.5078125 C36.5453614 28.54925257 34.02893806 30.45480335 29.5 30.75 C24.33529474 30.43108166 21.40062515 27.6739873 18 24 C17.731875 24.61875 17.46375 25.2375 17.1875 25.875 C16 28 16 28 13 30 C9.93524457 30.54522803 7.06475161 30.54842924 4 30 C1 27.5625 1 27.5625 -1 25 C-1.33 24.67 -1.66 24.34 -2 24 C-2.75482088 15.94272591 -1.27959685 7.92893047 0 0 Z " fill="#3787D9" transform="translate(78,91)"/>
<path d="M0 0 C18.48 0 36.96 0 56 0 C56 0.33 56 0.66 56 1 C51.05 1 46.1 1 41 1 C41 7.93 41 14.86 41 22 C40.34 22 39.68 22 39 22 C38.731875 22.763125 38.46375 23.52625 38.1875 24.3125 C37.00174546 26.99604975 36.27618296 28.21596471 34 30 C29.41716426 30.84924001 25.29006933 30.86004622 21.375 28.25 C20 26 20 26 20 22 C19.34 22 18.68 22 18 22 C17.505 12.1 17.505 12.1 17 2 C11.39 1.67 5.78 1.34 0 1 C0 0.67 0 0.34 0 0 Z " fill="#3485D9" transform="translate(99,91)"/>
<path d="M0 0 C3.79134067 2.1683808 6.92260786 4.92260786 10 8 C10.66024327 12.64255266 11.04982535 17.7181482 9.0546875 22.0546875 C5.83557383 26.12413308 2.64739121 27.59578423 -2.328125 28.35546875 C-6.08797876 28.6537805 -8.84319984 28.86876156 -11.9453125 26.5390625 C-16.34297978 21.50405214 -17.40947852 17.12379752 -17.3515625 10.51171875 C-16.68634977 5.75914334 -13.93732506 3.46969487 -10.1875 0.625 C-6.68066763 -0.37695211 -3.55508467 -0.7572202 0 0 Z " fill="#372220" transform="translate(190,196)"/>
<path d="M0 0 C3.95925008 2.3246973 6.47152859 5.20729288 9 9 C9.7556891 13.5341346 9.47811031 17.75640898 7.375 21.875 C4.19508489 26.05909883 1.77111927 27.51708508 -3.3984375 28.41796875 C-7.17243391 28.7183018 -9.86223301 28.87907953 -12.94140625 26.5 C-17.66712461 21.03410889 -18.45800197 17.11759815 -18 10 C-17.09452784 6.01592252 -15.17232798 3.47138994 -11.90234375 0.9609375 C-8.02665957 -0.9968003 -4.17313065 -0.94933778 0 0 Z " fill="#372320" transform="translate(119,196)"/>
<path d="M0 0 C6.6 0 13.2 0 20 0 C21.67080895 7.83191697 23.2522369 15.99841845 22 24 C20.19002573 26.68889182 18.91213225 28.54393387 16 30 C12.94049967 30.42075643 10.0535716 30.48435963 7 30 C3.9375 27.625 3.9375 27.625 2 25 C2 24.34 2 23.68 2 23 C1.34 23 0.68 23 0 23 C0 15.41 0 7.82 0 0 Z " fill="#3586D9" transform="translate(199,91)"/>
<path d="M0 0 C13.2 0 26.4 0 40 0 C40 4.62 40 9.24 40 14 C27.13 14 14.26 14 1 14 C0.67 9.38 0.34 4.76 0 0 Z " fill="#3787D9" transform="translate(130,203)"/>
<path d="M0 0 C3.3 0 6.6 0 10 0 C10.99 3.63 11.98 7.26 13 11 C13.99 7.37 14.98 3.74 16 0 C19.3 0 22.6 0 26 0 C26 7.26 26 14.52 26 22 C23.69 22 21.38 22 19 22 C18.505 17.05 18.505 17.05 18 12 C17.690625 13.464375 17.38125 14.92875 17.0625 16.4375 C16.125 20.875 16.125 20.875 15 22 C13.33382885 22.04063832 11.66611905 22.042721 10 22 C9.01 19.69 8.02 17.38 7 15 C6.67 17.31 6.34 19.62 6 22 C4.02 22 2.04 22 0 22 C0 14.74 0 7.48 0 0 Z " fill="#090909" transform="translate(121,130)"/>
<path d="M0 0 C5.61 0 11.22 0 17 0 C17.08115993 3.06303578 17.14057409 6.12390815 17.1875 9.1875 C17.21263672 10.05181641 17.23777344 10.91613281 17.26367188 11.80664062 C17.32021387 16.72579386 17.2053242 20.00304609 14 24 C11.45268958 26.54731042 9.55484721 26.35323144 6.0703125 26.55859375 C4 26 4 26 1.7578125 24.1484375 C-0.82362476 19.52479655 -0.43149509 15.38454208 -0.25 10.1875 C-0.23195312 9.20845703 -0.21390625 8.22941406 -0.1953125 7.22070312 C-0.14834034 4.81337997 -0.07660146 2.40656257 0 0 Z " fill="#F5F9FD" transform="translate(182,93)"/>
<path d="M0 0 C5.61 0 11.22 0 17 0 C17.05410136 3.06273831 17.09372225 6.12451452 17.125 9.1875 C17.14175781 10.05181641 17.15851563 10.91613281 17.17578125 11.80664062 C17.23994664 20.18022345 17.23994664 20.18022345 15 24 C11.2794164 26.48038907 9.40203429 26.46337203 5 26 C2.09282927 23.78136971 1.16018357 22.48055071 0 19 C-0.0806622 17.51876453 -0.10761193 16.03417796 -0.09765625 14.55078125 C-0.09443359 13.70322266 -0.09121094 12.85566406 -0.08789062 11.98242188 C-0.07951172 11.10134766 -0.07113281 10.22027344 -0.0625 9.3125 C-0.05798828 8.41982422 -0.05347656 7.52714844 -0.04882812 6.60742188 C-0.03705004 4.40491927 -0.01911481 2.20245115 0 0 Z " fill="#F7FAFD" transform="translate(99,93)"/>
<path d="M0 0 C5.28 0 10.56 0 16 0 C16.13487159 3.58458702 16.23405872 7.16411313 16.3125 10.75 C16.35439453 11.76578125 16.39628906 12.7815625 16.43945312 13.828125 C16.56308564 21.34498201 16.56308564 21.34498201 13.703125 24.671875 C10.16484888 26.41033437 7.89414649 26.56642131 4 26 C1.80078125 24.671875 1.80078125 24.671875 0 22 C-0.49805005 18.23985652 -0.37486535 14.5343807 -0.25 10.75 C-0.23195312 9.71875 -0.21390625 8.6875 -0.1953125 7.625 C-0.14823723 5.0829355 -0.07649546 2.54134933 0 0 Z " fill="#F9FBFD" transform="translate(141,93)"/>
<path d="M0 0 C2.97 0 5.94 0 9 0 C12.14169523 7.2271408 14.92957946 14.39162534 17 22 C14.36 22 11.72 22 9 22 C9 21.01 9 20.02 9 19 C6.03 19 3.06 19 0 19 C0 19.99 0 20.98 0 22 C-2.31 22 -4.62 22 -7 22 C-6.23754579 17.18399177 -4.58720144 12.75384298 -2.9375 8.1875 C-2.65583984 7.39923828 -2.37417969 6.61097656 -2.08398438 5.79882812 C-1.39241462 3.86477711 -0.69662722 1.93223512 0 0 Z " fill="#0A0A0A" transform="translate(156,130)"/>
<path d="M0 0 C6.27 0 12.54 0 19 0 C19 1.65 19 3.3 19 5 C15.04 5 11.08 5 7 5 C7 6.32 7 7.64 7 9 C10.3 9 13.6 9 17 9 C17 10.65 17 12.3 17 14 C13.7 14 10.4 14 7 14 C7 14.99 7 15.98 7 17 C10.96 17 14.92 17 19 17 C19 18.65 19 20.3 19 22 C12.73 22 6.46 22 0 22 C0 14.74 0 7.48 0 0 Z " fill="#030303" transform="translate(88,130)"/>
<path d="M0 0 C6.27 0 12.54 0 19 0 C19 4.62 19 9.24 19 14 C12.73 14 6.46 14 0 14 C0 9.38 0 4.76 0 0 Z " fill="#3787D9" transform="translate(79,203)"/>
<path d="M0 0 C6.27 0 12.54 0 19 0 C19 4.62 19 9.24 19 14 C12.73 14 6.46 14 0 14 C0 9.38 0 4.76 0 0 Z " fill="#3586D9" transform="translate(203,203)"/>
<path d="M0 0 C2.31 0 4.62 0 7 0 C7 5.28 7 10.56 7 16 C10.63 16 14.26 16 18 16 C18 17.98 18 19.96 18 22 C12.06 22 6.12 22 0 22 C0 14.74 0 7.48 0 0 Z " fill="#060606" transform="translate(196,130)"/>
<path d="M0 0 C2.31 0 4.62 0 7 0 C7 5.28 7 10.56 7 16 C10.63 16 14.26 16 18 16 C18 17.98 18 19.96 18 22 C12.06 22 6.12 22 0 22 C0 14.74 0 7.48 0 0 Z " fill="#060606" transform="translate(175,130)"/>
<path d="M0 0 C2.375 1.125 2.375 1.125 4 3 C4.62060815 6.64607289 4.47464453 8.30628876 2.375 11.375 C-0.69371124 13.47464453 -2.35392711 13.62060815 -6 13 C-8.59814888 10.74827097 -8.95716454 9.34982295 -9.375 5.9375 C-9 3 -9 3 -7.875 1.125 C-5.10703881 -0.53577671 -3.16909182 -0.38805206 0 0 Z " fill="#C7C1C1" transform="translate(189,204)"/>
<path d="M0 0 C1.875 1.0625 1.875 1.0625 3 3 C3.4375 6.5 3.4375 6.5 3 10 C0.900775 12.41022129 -0.43085365 12.90282867 -3.5625 13.4375 C-6 13 -6 13 -7.8125 11.375 C-9.33264845 8.3347031 -9.42888292 6.35958291 -9 3 C-6.79086995 -0.68188342 -4.01844539 -0.50230567 0 0 Z " fill="#C8C2C1" transform="translate(117,204)"/>
<path d="M0 0 C0.33 0 0.66 0 1 0 C1 3.96 1 7.92 1 12 C13.87 12 26.74 12 40 12 C39.505 11.01 39.505 11.01 39 10 C38.93049459 8.45976004 38.91547643 6.91665012 38.9375 5.375 C38.94652344 4.55773437 38.95554688 3.74046875 38.96484375 2.8984375 C38.97644531 2.27195313 38.98804688 1.64546875 39 1 C39.66 1.99 40.32 2.98 41 4 C41.66 2.68 42.32 1.36 43 0 C43.66 4.62 44.32 9.24 45 14 C44.01 13.34 43.02 12.68 42 12 C41.67 12.33 41.34 12.66 41 13 C39.58774954 13.0928726 38.17091066 13.11746772 36.75561523 13.11352539 C35.85475693 13.11344986 34.95389862 13.11337433 34.02574158 13.11329651 C33.04658279 13.10813522 32.06742401 13.10297394 31.05859375 13.09765625 C30.06118668 13.0962413 29.0637796 13.09482635 28.03614807 13.09336853 C24.83656876 13.08775114 21.63705831 13.07519571 18.4375 13.0625 C16.27408955 13.05748724 14.11067801 13.05292395 11.94726562 13.04882812 C6.63148675 13.03777607 1.31574829 13.02102104 -4 13 C-3.71812064 11.20676747 -3.4241719 9.41542874 -3.125 7.625 C-2.96257812 6.62726563 -2.80015625 5.62953125 -2.6328125 4.6015625 C-2 2 -2 2 0 0 Z " fill="#BED8F3" transform="translate(130,205)"/>
<path d="M0 0 C0.33 0 0.66 0 1 0 C1.01458252 0.65073486 1.02916504 1.30146973 1.04418945 1.97192383 C1.11864549 4.91938306 1.21531266 7.86570642 1.3125 10.8125 C1.33505859 11.83666016 1.35761719 12.86082031 1.38085938 13.91601562 C1.41630859 14.89892578 1.45175781 15.88183594 1.48828125 16.89453125 C1.51446533 17.80050049 1.54064941 18.70646973 1.56762695 19.63989258 C2.07966202 22.43483497 2.70534418 23.35782139 5 25 C8.57132931 25.38959956 10.99746103 25.5526961 14.18457031 23.7956543 C16.55562103 21.45043132 16.53317794 20.19005396 16.609375 16.89453125 C16.64160156 15.91162109 16.67382812 14.92871094 16.70703125 13.91601562 C16.72830078 12.37977539 16.72830078 12.37977539 16.75 10.8125 C16.77964844 9.77673828 16.80929688 8.74097656 16.83984375 7.67382812 C16.91057245 5.11580688 16.96325257 2.55869842 17 0 C17.33 0 17.66 0 18 0 C18.31476383 3.53918477 18.56888319 7.0802637 18.8125 10.625 C18.90208984 11.62402344 18.99167969 12.62304688 19.08398438 13.65234375 C19.60928227 22.00181561 19.60928227 22.00181561 16.828125 25.671875 C13.02463235 28.80292696 11.04004588 28.75621386 6.30859375 28.4609375 C4 28 4 28 1.5 26.25 C0.14090784 24.21136176 -1.0350295 22.25159784 -2 20 C-1.34 20 -0.68 20 0 20 C0 13.4 0 6.8 0 0 Z " fill="#5E9FE1" transform="translate(140,93)"/>
<path d="M0 0 C6.6 0 13.2 0 20 0 C20 0.99 20 1.98 20 3 C20.99 2.67 21.98 2.34 23 2 C22.98839844 2.74765625 22.97679688 3.4953125 22.96484375 4.265625 C22.95582031 5.25046875 22.94679688 6.2353125 22.9375 7.25 C22.92589844 8.22453125 22.91429688 9.1990625 22.90234375 10.203125 C22.98804423 12.65758678 23.29293934 14.66168914 24 17 C23.34 17 22.68 17 22 17 C21.67 16.34 21.34 15.68 21 15 C20.67 15.33 20.34 15.66 20 16 C18.5112814 16.08669432 17.018555 16.10703494 15.52734375 16.09765625 C14.62822266 16.09443359 13.72910156 16.09121094 12.80273438 16.08789062 C11.85720703 16.07951172 10.91167969 16.07113281 9.9375 16.0625 C8.98810547 16.05798828 8.03871094 16.05347656 7.06054688 16.04882812 C4.70696935 16.0370011 2.35351523 16.02052025 0 16 C0 15.67 0 15.34 0 15 C6.27 15 12.54 15 19 15 C18.67 14.01 18.34 13.02 18 12 C17.8671875 10.0625 17.8671875 10.0625 17.875 8 C17.87113281 6.9790625 17.87113281 6.9790625 17.8671875 5.9375 C18 4 18 4 19 1 C12.73 1 6.46 1 0 1 C0 0.67 0 0.34 0 0 Z " fill="#C5D1E0" transform="translate(79,202)"/>
<path d="M0 0 C0.33 0 0.66 0 1 0 C1 6.6 1 13.2 1 20 C1.66 20 2.32 20 3 20 C3 22 3 22 1.78515625 23.5078125 C-1.4546386 26.54925257 -3.97106194 28.45480335 -8.5 28.75 C-13.66470526 28.43108166 -16.59937485 25.6739873 -20 22 C-19.01 21.67 -18.02 21.34 -17 21 C-16.67 20.34 -16.34 19.68 -16 19 C-15.71125 19.804375 -15.4225 20.60875 -15.125 21.4375 C-14.26737432 24.1326468 -14.26737432 24.1326468 -12 25 C-6.67032792 25.34092041 -6.67032792 25.34092041 -2 23 C-0.98189278 20.19322542 -0.82393817 17.42040705 -0.68359375 14.453125 C-0.64169922 13.60878906 -0.59980469 12.76445313 -0.55664062 11.89453125 C-0.51732422 11.02183594 -0.47800781 10.14914063 -0.4375 9.25 C-0.39431641 8.36183594 -0.35113281 7.47367187 -0.30664062 6.55859375 C-0.20086385 4.37254037 -0.09877454 2.18637911 0 0 Z " fill="#5499DF" transform="translate(116,93)"/>
<path d="M0 0 C6.6 0 13.2 0 20 0 C20 0.33 20 0.66 20 1 C13.73 1 7.46 1 1 1 C1.33 1.99 1.66 2.98 2 4 C2.09203743 5.51861755 2.13001284 7.04110426 2.125 8.5625 C2.12757813 9.34753906 2.13015625 10.13257813 2.1328125 10.94140625 C2 13 2 13 1 15 C7.27 15 13.54 15 20 15 C20 15.33 20 15.66 20 16 C12.41 16 4.82 16 -3 16 C-2.67 12.37 -2.34 8.74 -2 5 C-1.67 5 -1.34 5 -1 5 C-0.67 3.35 -0.34 1.7 0 0 Z " fill="#BED6EF" transform="translate(202,202)"/>
<path d="M0 0 C4.55555556 0.55555556 4.55555556 0.55555556 6 2 C6.04063832 3.66617115 6.042721 5.33388095 6 7 C2.71303767 7.79953138 1.28976808 8.09658936 -2 7 C-2.125 4.625 -2.125 4.625 -2 2 C-1.34 1.34 -0.68 0.68 0 0 Z " fill="#3E2B28" transform="translate(112,206)"/>
<path d="M0 0 C0.66 1.32 1.32 2.64 2 4 C-0.28353822 7.04471763 -1.61460202 8.72918715 -5.41796875 9.47265625 C-9.69754582 9.61804809 -12.15144548 9.64651773 -15.625 7 C-16.07875 6.34 -16.5325 5.68 -17 5 C-16.67 4.01 -16.34 3.02 -16 2 C-15.505 2.66 -15.01 3.32 -14.5 4 C-11.84941377 6.12046898 -11.17371169 6.33618214 -7.9375 6.4375 C-4.15901647 6.3272495 -4.15901647 6.3272495 -2.0625 4.6875 C-0.82428274 2.86929609 -0.82428274 2.86929609 0 0 Z " fill="#4F96DE" transform="translate(198,112)"/>
<path d="M0 0 C4.70588235 0.70588235 4.70588235 0.70588235 6 2 C6.125 4.5 6.125 4.5 6 7 C5 8 5 8 2.5 8.125 C0 8 0 8 -1 7 C-1.125 4 -1.125 4 -1 1 C-0.67 0.67 -0.34 0.34 0 0 Z " fill="#3B2724" transform="translate(184,206)"/>
<path d="M0 0 C0.33 0 0.66 0 1 0 C1.0093457 0.64026123 1.01869141 1.28052246 1.02832031 1.94018555 C1.08218847 4.85672375 1.16580199 7.77168625 1.25 10.6875 C1.26417969 11.69490234 1.27835938 12.70230469 1.29296875 13.74023438 C1.47312058 19.80400655 1.47312058 19.80400655 4.046875 25.20703125 C4.69140625 25.79871094 5.3359375 26.39039062 6 27 C5.34 27.33 4.68 27.66 4 28 C1.33264727 25.51047079 -0.55746343 23.36591866 -2 20 C-1.34 20 -0.68 20 0 20 C0 13.4 0 6.8 0 0 Z " fill="#6CA7E2" transform="translate(140,93)"/>
<path d="M0 0 C2.64 0 5.28 0 8 0 C8 1.65 8 3.3 8 5 C5.36 5 2.72 5 0 5 C0 3.35 0 1.7 0 0 Z " fill="#0B0B0B" transform="translate(109,141)"/>
<path d="M0 0 C0.33 0 0.66 0 1 0 C1.66 4.62 2.32 9.24 3 14 C0 12.5625 0 12.5625 -3 10 C-3.53698855 6.94127109 -3.35474551 4.07446111 -3 1 C-2.01 2.485 -2.01 2.485 -1 4 C-0.67 2.68 -0.34 1.36 0 0 Z " fill="#C6C9CF" transform="translate(172,205)"/>
<path d="M0 0 C5.4 -0.36 5.4 -0.36 7.875 1.125 C9.4682099 3.78034983 9.20214032 5.96789518 9 9 C8.71125 8.38125 8.4225 7.7625 8.125 7.125 C7.06279958 4.86674235 7.06279958 4.86674235 5 3 C1.91652174 2.83318891 1.91652174 2.83318891 -1 3 C-0.67 2.01 -0.34 1.02 0 0 Z " fill="#D9D5D4" transform="translate(111,204)"/>
<path d="M0 0 C0.33 0 0.66 0 1 0 C1.0825 0.78375 1.165 1.5675 1.25 2.375 C1.71525923 5.14044802 1.71525923 5.14044802 4 6.1875 C4.66 6.455625 5.32 6.72375 6 7 C6.33 7.66 6.66 8.32 7 9 C4.125 9.125 4.125 9.125 1 9 C0.34 8.34 -0.32 7.68 -1 7 C-0.625 3.375 -0.625 3.375 0 0 Z " fill="#AEA6A5" transform="translate(182,208)"/>
<path d="M0 0 C2.5654594 2.5654594 2.54046087 4.47686668 3 8 C1.35 8 -0.3 8 -2 8 C-1.34 5.36 -0.68 2.72 0 0 Z " fill="#D6D6D6" transform="translate(160,137)"/>
<path d="M0 0 C0.33 0 0.66 0 1 0 C1.33 3.63 1.66 7.26 2 11 C0.68 11 -0.64 11 -2 11 C-1.34 7.37 -0.68 3.74 0 0 Z " fill="#DFDDDE" transform="translate(128,207)"/>
<path d="M0 0 C0.33 0 0.66 0 1 0 C1.125 2.375 1.125 2.375 1 5 C-1 7 -1 7 -4.125 7.125 C-5.548125 7.063125 -5.548125 7.063125 -7 7 C-6.401875 6.773125 -5.80375 6.54625 -5.1875 6.3125 C-2.44106051 4.66463631 -1.52827786 2.76545517 0 0 Z " fill="#E6E4E4" transform="translate(191,209)"/>
</svg>
